<svg xmlns="http://www.w3.org/2000/svg" width="24" height="24" viewBox="0 0 24 24">
    <g fill="none" fill-rule="evenodd">
        <path fill="#1D1D1D" d="M10.05 19.777l1.557 3.426a.531.531 0 0 0 .968 0l1.557-3.426H10.05z"/>
        <path fill="#FFF" stroke="#1D1D1D" stroke-width="2" d="M21.127 10.063a9.063 9.063 0 1 1-18.127 0 9.063 9.063 0 0 1 18.127 0"/>
        <path fill="#1D1D1D" d="M14.96 11.63a.671.671 0 0 1-.67-.673c0-.371.3-.672.67-.672.37 0 .67.3.67.672 0 .372-.3.673-.67.673zm-5.794 0a.671.671 0 0 1-.67-.673c0-.371.3-.672.67-.672.37 0 .67.3.67.672 0 .372-.3.673-.67.673zm.908-3.888c.088-.15.352-.303.525-.303h2.929c.172 0 .437.153.524.303l1.18 2.026H8.895l1.178-2.026zm5.952 1.564l-1.18-2.03c-.252-.433-.819-.76-1.318-.76h-2.929c-.5 0-1.066.327-1.318.76l-1.18 2.03a3.136 3.136 0 0 0-.372 1.378v2.726c0 .083.067.15.15.15h.93c.084 0 .151-.067.151-.15v-.771h6.206v.77c0 .084.068.152.15.152h.932c.082 0 .15-.068.15-.151v-2.726c0-.421-.16-1.014-.372-1.378z"/>
    </g>
</svg>
