<?xml version="1.0" encoding="UTF-8"?>
<svg width="24px" height="24px" viewBox="0 0 24 24" version="1.1" xmlns="http://www.w3.org/2000/svg" xmlns:xlink="http://www.w3.org/1999/xlink">
    <!-- Generator: sketchtool 56.3 (101010) - https://sketch.com -->
    <title>3D3C0482-79ED-4C2F-8107-EE3D12892822</title>
    <desc>Created with sketchtool.</desc>
    <g id="Symbols" stroke="none" stroke-width="1" fill="none" fill-rule="evenodd">
        <g id="Atoms-/-Icons-/-Info">
            <path d="M9.88831221,19.7766244 C5.37959245,18.8074058 2,14.798376 2,10 C2,4.4771525 6.4771525,0 12,0 C17.5228475,0 22,4.4771525 22,10 C22,14.798376 18.6204075,18.8074058 14.1116878,19.7766244 L12,24 L9.88831221,19.7766244 Z" id="Combined-Shape" fill="#1D1D1D"></path>
            <path d="M10.5560513,11.6555534 C10.9844247,10.8814409 11.3746076,10.1964013 11.4536738,9.67694202 C11.5632702,8.95690129 10.4207077,8.75028394 9.97945711,9.0723234 C9.89499237,9.1336239 9.71408388,9.0723234 9.71408388,8.93945667 C9.71408388,8.80658994 9.70798235,8.70149676 9.87020778,8.57493349 C10.5512218,8.04362737 11.9486524,7.99789286 12.4802452,7.99838194 C12.7940924,7.99867069 13.0980525,8.12013546 13.3839331,8.36053509 C14.4664377,9.26930785 13.4285666,11.4035255 12.4028427,13.1614655 C12.3654813,13.2254831 12.3268822,13.2858985 12.2872151,13.3428248 C11.8588417,14.1169372 11.4686588,14.8019768 11.3895926,15.3214361 C11.2799962,16.0414768 12.4225587,16.2480942 12.8638093,15.9260547 C12.948274,15.8647542 13.1291825,15.9260547 13.1291825,16.0589215 C13.1291825,16.1917882 13.135284,16.2968814 12.9730586,16.4234446 C12.2920446,16.9547508 10.894614,17.0004853 10.3630212,16.9999962 C10.049174,16.9997074 9.74521393,16.8782427 9.45933328,16.637843 C8.3768287,15.7290703 9.41469974,13.5948526 10.4404237,11.8369126 C10.4777851,11.7728951 10.5163842,11.7124797 10.5560513,11.6555534 Z M12.9272971,6.57027009 C11.9413942,6.57027009 11.1421621,5.7710379 11.1421621,4.78513504 C11.1421621,3.79923218 11.9413942,3 12.9272971,3 C13.9132,3 14.7124321,3.79923218 14.7124321,4.78513504 C14.7124321,5.7710379 13.9132,6.57027009 12.9272971,6.57027009 Z" id="Combined-Shape" fill="#FFFFFF"></path>
        </g>
    </g>
</svg>