<svg xmlns="http://www.w3.org/2000/svg" width="24" height="24" viewBox="0 0 24 24">
    <g fill="none" fill-rule="evenodd">
        <path fill="#1D1D1D" d="M12 0c5.523 0 10 4.477 10 10 0 4.798-3.38 8.807-7.887 9.776L12 24l-2.112-4.223C5.38 18.807 2 14.798 2 10 2 4.477 6.477 0 12 0z"/>
        <path fill="#FFF" d="M12.48 7.998c.314 0 .618.122.904.363 1.082.908.045 3.043-.981 4.8a2.683 2.683 0 0 1-.113.178c-.43.775-.821 1.462-.9 1.982-.11.72 1.033.927 1.474.605.084-.061.265 0 .265.133s.006.238-.156.364c-.681.532-2.078.577-2.61.577-.314 0-.618-.122-.904-.362-1.082-.909-.044-3.043.981-4.801.037-.062.074-.12.112-.176.43-.776.822-1.463.902-1.984.11-.72-1.033-.927-1.475-.605-.084.062-.265 0-.265-.133 0-.132-.006-.238.156-.364.681-.531 2.079-.577 2.61-.577zM12.927 3a1.785 1.785 0 1 1 0 3.57 1.785 1.785 0 0 1 0-3.57z"/>
    </g>
</svg>
